<svg width="95" height="95" viewBox="0 0 95 95" fill="none" xmlns="http://www.w3.org/2000/svg">
<path d="M29.462 21.1771C31.9914 21.1771 34.3308 21.375 36.4683 21.9608C38.6097 22.3527 40.3633 23.1365 41.9189 24.1142C43.4785 25.0958 44.6462 26.4654 45.422 28.2269C46.2018 29.9883 46.5937 32.1456 46.5937 34.4929C46.5937 37.2361 46.0079 39.5833 44.6462 41.3448C43.4785 43.1102 41.531 44.6738 39.1956 45.8494C42.5047 46.8311 45.0341 48.5925 46.5937 50.9438C48.1493 53.291 49.1231 56.2281 49.1231 59.5571C49.1231 62.3002 48.5372 64.6475 47.5635 66.6069C46.5937 68.5663 45.0341 70.3277 43.2806 71.5033C41.3757 72.7634 39.2701 73.6897 37.0541 74.2425C34.7187 74.8323 32.3833 75.2242 30.0479 75.2242H3.9585V21.1771H29.462ZM27.9025 43.1063C30.0439 43.1063 31.7975 42.5204 33.1591 41.5427C34.5208 40.565 35.1066 38.7996 35.1066 36.6463C35.1066 35.4706 34.9087 34.299 34.5208 33.5152C34.1329 32.7315 33.547 32.1417 32.7712 31.5558C31.9914 31.164 31.2116 30.7721 30.2379 30.5781C29.2641 30.3802 28.2943 30.3802 27.1227 30.3802H15.8335V43.1102H27.9064L27.9025 43.1063ZM28.4883 66.215C29.656 66.215 30.8237 66.0171 31.7975 65.8231C32.7712 65.6252 33.745 65.2373 34.5208 64.6475C35.314 64.0745 35.9776 63.3408 36.4683 62.4942C36.8562 61.5165 37.2481 60.3408 37.2481 58.9713C37.2481 56.2281 36.4683 54.2688 34.9127 52.8992C33.3531 51.7236 31.2116 51.1377 28.6822 51.1377H15.8335V66.219L28.4883 66.215ZM66.0608 66.0171C67.6164 67.5846 69.9518 68.3683 73.067 68.3683C75.2085 68.3683 77.156 67.7825 78.7116 66.8048C80.2712 65.6292 81.2449 64.4536 81.6329 63.2819H91.1725C89.6129 67.9765 87.2775 71.3054 84.1662 73.4627C81.047 75.4181 77.35 76.5938 72.8731 76.5938C70.0087 76.6026 67.1684 76.0708 64.5012 75.0263C62.1012 74.1262 59.9608 72.6468 58.2708 70.7196C56.463 68.9169 55.1267 66.6969 54.3797 64.2556C53.406 61.7104 53.0141 58.9713 53.0141 55.8363C53.0141 52.8992 53.406 50.16 54.3797 47.6108C55.3176 45.1581 56.7042 42.9016 58.4687 40.9569C60.2464 39.1315 62.3608 37.6677 64.6952 36.6463C67.2946 35.6015 70.0715 35.0692 72.8731 35.0788C76.1822 35.0788 79.1035 35.6686 81.6329 37.0381C84.1662 38.4077 86.1097 39.9752 87.6654 42.3265C89.225 44.4798 90.3966 47.025 91.1725 49.7681C91.5604 52.5073 91.7543 55.2504 91.5604 58.3815H63.3335C63.3335 61.5165 64.5012 64.4536 66.0608 66.0211V66.0171ZM78.3237 45.4575C76.962 44.0879 74.8206 43.3042 72.2872 43.3042C70.5377 43.3042 69.172 43.7 68.0043 44.2858C66.8366 44.8717 66.0608 45.6554 65.281 46.4392C64.5632 47.1959 64.0876 48.1497 63.9154 49.1783C63.7214 50.16 63.5275 50.9438 63.5275 51.7236H81.047C80.6591 48.7865 79.6854 46.8311 78.3237 45.4575ZM61.192 24.8979H82.9945V30.1863H61.196V24.8979H61.192Z" fill="#EAEDE8"/>
</svg>
