<svg width="105" height="105" viewBox="0 0 105 105" fill="none" xmlns="http://www.w3.org/2000/svg">
<path d="M34.125 8.75H70.875C84.875 8.75 96.25 20.125 96.25 34.125V70.875C96.25 77.6049 93.5766 84.0591 88.8178 88.8178C84.0591 93.5766 77.6049 96.25 70.875 96.25H34.125C20.125 96.25 8.75 84.875 8.75 70.875V34.125C8.75 27.3951 11.4234 20.9409 16.1822 16.1822C20.9409 11.4234 27.3951 8.75 34.125 8.75ZM33.25 17.5C29.0728 17.5 25.0668 19.1594 22.1131 22.1131C19.1594 25.0668 17.5 29.0728 17.5 33.25V71.75C17.5 80.4562 24.5437 87.5 33.25 87.5H71.75C75.9272 87.5 79.9332 85.8406 82.8869 82.8869C85.8406 79.9332 87.5 75.9272 87.5 71.75V33.25C87.5 24.5437 80.4562 17.5 71.75 17.5H33.25ZM75.4688 24.0625C76.9192 24.0625 78.3102 24.6387 79.3357 25.6643C80.3613 26.6898 80.9375 28.0808 80.9375 29.5312C80.9375 30.9817 80.3613 32.3727 79.3357 33.3982C78.3102 34.4238 76.9192 35 75.4688 35C74.0183 35 72.6273 34.4238 71.6018 33.3982C70.5762 32.3727 70 30.9817 70 29.5312C70 28.0808 70.5762 26.6898 71.6018 25.6643C72.6273 24.6387 74.0183 24.0625 75.4688 24.0625ZM52.5 30.625C58.3016 30.625 63.8656 32.9297 67.968 37.032C72.0703 41.1344 74.375 46.6984 74.375 52.5C74.375 58.3016 72.0703 63.8656 67.968 67.968C63.8656 72.0703 58.3016 74.375 52.5 74.375C46.6984 74.375 41.1344 72.0703 37.032 67.968C32.9297 63.8656 30.625 58.3016 30.625 52.5C30.625 46.6984 32.9297 41.1344 37.032 37.032C41.1344 32.9297 46.6984 30.625 52.5 30.625ZM52.5 39.375C49.019 39.375 45.6806 40.7578 43.2192 43.2192C40.7578 45.6806 39.375 49.019 39.375 52.5C39.375 55.981 40.7578 59.3194 43.2192 61.7808C45.6806 64.2422 49.019 65.625 52.5 65.625C55.981 65.625 59.3194 64.2422 61.7808 61.7808C64.2422 59.3194 65.625 55.981 65.625 52.5C65.625 49.019 64.2422 45.6806 61.7808 43.2192C59.3194 40.7578 55.981 39.375 52.5 39.375Z" fill="#EAEDE8"/>
</svg>
