<svg width="85" height="79" viewBox="0 0 85 79" fill="none" xmlns="http://www.w3.org/2000/svg">
<path d="M18.3623 8.87501C18.3611 11.1957 17.4382 13.4208 15.7964 15.0609C14.1546 16.701 11.9286 17.6218 9.60793 17.6206C7.28729 17.6195 5.06215 16.6965 3.42203 15.0547C1.7819 13.413 0.861145 11.1869 0.862306 8.86626C0.863466 6.54562 1.78645 4.32048 3.42821 2.68036C5.06998 1.04024 7.29604 0.119477 9.61668 0.120637C11.9373 0.121797 14.1625 1.04478 15.8026 2.68655C17.4427 4.32831 18.3635 6.55437 18.3623 8.87501ZM18.6248 24.1H1.12481V78.875H18.6248V24.1ZM46.2748 24.1H28.8623V78.875H46.0998V50.1313C46.0998 34.1188 66.9686 32.6313 66.9686 50.1313V78.875H84.2498V44.1813C84.2498 17.1875 53.3623 18.1938 46.0998 31.45L46.2748 24.1Z" fill="#EAEDE8"/>
</svg>
