<svg width="834" height="314" viewBox="0 0 834 314" fill="none" xmlns="http://www.w3.org/2000/svg">
<line x1="5" y1="312.25" x2="834" y2="312.25" stroke="#756E45" stroke-width="3.5"/>
<path d="M678.814 217.546C678.814 221.64 678.031 224.831 676.463 227.118C674.933 229.367 672.769 230.935 669.97 231.82C667.171 232.705 663.905 233.148 660.173 233.148H652V202H660.173C663.905 202 667.171 202.59 669.97 203.77C672.769 204.914 674.933 206.629 676.463 208.916C678.031 211.202 678.814 214.079 678.814 217.546ZM654.575 230.935H660.621C663.718 230.935 666.424 230.585 668.738 229.884C671.089 229.183 672.899 227.874 674.168 225.956C675.474 224.038 676.127 221.235 676.127 217.546C676.127 214.522 675.474 212.032 674.168 210.077C672.899 208.086 671.089 206.629 668.738 205.707C666.424 204.748 663.718 204.268 660.621 204.268H654.575V230.935Z" fill="#696231"/>
<path d="M692.872 233.701C690.447 233.701 688.431 233.13 686.827 231.986C685.259 230.843 684.084 229.386 683.3 227.615C682.516 225.808 682.143 223.946 682.18 222.028C682.18 220.036 682.591 218.173 683.412 216.44C684.233 214.706 685.427 213.323 686.995 212.29C688.599 211.221 690.54 210.686 692.816 210.686C695.653 210.686 697.985 211.608 699.814 213.452C701.68 215.26 702.725 217.694 702.949 220.755C702.986 220.94 703.005 221.161 703.005 221.419C703.005 221.677 703.005 221.917 703.005 222.138H684.643C684.643 224.978 685.352 227.247 686.771 228.943C688.189 230.64 690.223 231.488 692.872 231.488C694.776 231.488 696.418 230.99 697.799 229.994C699.217 228.999 700.094 227.652 700.43 225.956H702.949C702.501 228.243 701.363 230.105 699.534 231.544C697.743 232.982 695.522 233.701 692.872 233.701ZM684.811 220.479H700.374C700.336 219.52 700.057 218.45 699.534 217.27C699.049 216.089 698.247 215.057 697.127 214.172C696.045 213.286 694.608 212.844 692.816 212.844C690.353 212.844 688.469 213.6 687.162 215.112C685.856 216.624 685.073 218.413 684.811 220.479Z" fill="#696231"/>
<path d="M716.346 233.701C714.442 233.701 712.893 233.388 711.699 232.761C710.505 232.097 709.591 231.322 708.956 230.437C708.322 229.552 707.874 228.704 707.613 227.892C707.389 227.081 707.277 226.491 707.277 226.122H709.796C709.796 226.159 709.815 226.472 709.852 227.062C709.927 227.615 710.15 228.261 710.524 228.999C710.897 229.736 711.531 230.382 712.427 230.935C713.36 231.451 714.685 231.71 716.402 231.71C717.596 231.71 718.715 231.58 719.76 231.322C720.843 231.027 721.701 230.585 722.335 229.994C723.007 229.367 723.343 228.556 723.343 227.56C723.306 226.38 722.914 225.476 722.167 224.849C721.421 224.185 720.451 223.687 719.257 223.355C718.062 223.024 716.812 222.728 715.506 222.47C714.2 222.212 712.949 221.862 711.755 221.419C710.598 220.976 709.647 220.331 708.9 219.483C708.191 218.634 707.855 217.473 707.893 215.997C707.893 214.264 708.714 212.844 710.356 211.737C711.998 210.631 714.106 210.077 716.681 210.077C717.652 210.077 718.659 210.188 719.704 210.409C720.787 210.631 721.794 211.018 722.727 211.571C723.66 212.124 724.407 212.899 724.966 213.895C725.526 214.854 725.769 216.089 725.694 217.602H723.231C723.306 216.458 723.119 215.536 722.671 214.835C722.223 214.098 721.626 213.544 720.88 213.176C720.171 212.807 719.424 212.567 718.641 212.456C717.857 212.309 717.148 212.235 716.514 212.235C714.759 212.235 713.267 212.567 712.035 213.231C710.841 213.858 710.244 214.799 710.244 216.053C710.244 217.196 710.617 218.063 711.363 218.653C712.11 219.206 713.08 219.649 714.274 219.981C715.469 220.276 716.719 220.571 718.025 220.866C719.331 221.124 720.563 221.493 721.72 221.972C722.914 222.415 723.884 223.079 724.631 223.964C725.414 224.849 725.806 226.085 725.806 227.671C725.806 229.072 725.377 230.234 724.519 231.156C723.66 232.041 722.503 232.687 721.048 233.093C719.63 233.498 718.062 233.701 716.346 233.701Z" fill="#696231"/>
<path d="M732.271 208.307C731.637 208.344 731.207 208.178 730.983 207.809C730.76 207.44 730.648 206.998 730.648 206.481C730.648 206.002 730.76 205.596 730.983 205.264C731.207 204.932 731.637 204.766 732.271 204.766C732.868 204.766 733.279 204.932 733.503 205.264C733.727 205.596 733.838 206.002 733.838 206.481C733.838 207.035 733.727 207.477 733.503 207.809C733.279 208.141 732.868 208.307 732.271 208.307ZM730.927 233.148V210.686H733.447V233.148H730.927Z" fill="#696231"/>
<path d="M744.09 242V239.621H756.07V227.671H755.958C755.883 227.929 755.659 228.372 755.286 228.999C754.95 229.626 754.447 230.308 753.775 231.046C753.103 231.783 752.226 232.41 751.144 232.927C750.099 233.443 748.83 233.701 747.337 233.701C745.173 233.701 743.325 233.185 741.795 232.152C740.302 231.119 739.164 229.736 738.38 228.003C737.597 226.269 737.205 224.333 737.205 222.194C737.205 220.018 737.597 218.063 738.38 216.329C739.201 214.596 740.358 213.231 741.851 212.235C743.381 211.202 745.229 210.686 747.393 210.686C748.923 210.686 750.211 210.963 751.256 211.516C752.338 212.032 753.196 212.659 753.831 213.397C754.503 214.098 754.988 214.78 755.286 215.444C755.622 216.071 755.827 216.514 755.902 216.772H756.014L756.07 210.686H758.701V237.961C758.701 239.142 758.477 240.101 758.029 240.838C757.619 241.613 756.742 242 755.398 242H744.09ZM747.673 231.322C749.95 231.322 751.89 230.529 753.495 228.943C755.137 227.357 755.958 225.107 755.958 222.194C755.958 219.354 755.193 217.141 753.663 215.555C752.133 213.932 750.248 213.12 748.009 213.12C746.143 213.12 744.594 213.563 743.363 214.448C742.131 215.296 741.217 216.421 740.619 217.823C740.022 219.188 739.724 220.645 739.724 222.194C739.724 223.743 739.985 225.218 740.508 226.62C741.067 228.021 741.926 229.165 743.083 230.05C744.277 230.898 745.807 231.322 747.673 231.322Z" fill="#696231"/>
<path d="M763.758 233.148V210.741H765.885L766.333 216.661H766.445C766.52 216.403 766.706 215.96 767.005 215.333C767.303 214.706 767.77 214.042 768.404 213.342C769.039 212.604 769.879 211.977 770.924 211.461C771.968 210.944 773.275 210.686 774.842 210.686C776.783 210.686 778.332 211.036 779.488 211.737C780.645 212.401 781.522 213.286 782.12 214.393C782.717 215.499 783.108 216.716 783.295 218.044C783.482 219.372 783.575 220.7 783.575 222.028V233.148H781.056V221.972C781.056 219.243 780.571 217.067 779.6 215.444C778.667 213.821 776.913 213.01 774.338 213.01C772.51 213.01 770.998 213.452 769.804 214.337C768.647 215.186 767.77 216.348 767.173 217.823C766.613 219.261 766.333 220.829 766.333 222.526V233.148H763.758Z" fill="#696231"/>
<path d="M798.272 233.701C795.847 233.701 793.831 233.13 792.227 231.986C790.659 230.843 789.484 229.386 788.7 227.615C787.916 225.808 787.543 223.946 787.58 222.028C787.58 220.036 787.991 218.173 788.812 216.44C789.633 214.706 790.827 213.323 792.394 212.29C793.999 211.221 795.94 210.686 798.216 210.686C801.053 210.686 803.385 211.608 805.214 213.452C807.08 215.26 808.125 217.694 808.349 220.755C808.386 220.94 808.405 221.161 808.405 221.419C808.405 221.677 808.405 221.917 808.405 222.138H790.043C790.043 224.978 790.752 227.247 792.171 228.943C793.589 230.64 795.623 231.488 798.272 231.488C800.176 231.488 801.818 230.99 803.199 229.994C804.617 228.999 805.494 227.652 805.83 225.956H808.349C807.901 228.243 806.763 230.105 804.934 231.544C803.143 232.982 800.922 233.701 798.272 233.701ZM790.211 220.479H805.774C805.736 219.52 805.456 218.45 804.934 217.27C804.449 216.089 803.646 215.057 802.527 214.172C801.445 213.286 800.008 212.844 798.216 212.844C795.753 212.844 793.869 213.6 792.562 215.112C791.256 216.624 790.472 218.413 790.211 220.479Z" fill="#696231"/>
<path d="M813.796 233.148V210.686H815.98L816.315 216.44C816.689 214.854 817.566 213.489 818.947 212.346C820.327 211.202 822.268 210.649 824.768 210.686H826V213.508H824.768C822.231 213.508 820.365 213.913 819.17 214.725C817.976 215.499 817.192 216.55 816.819 217.878C816.483 219.206 816.315 220.681 816.315 222.304V233.148H813.796Z" fill="#696231"/>
<path d="M678.814 217.546C678.814 221.64 678.031 224.831 676.463 227.118C674.933 229.367 672.769 230.935 669.97 231.82C667.171 232.705 663.905 233.148 660.173 233.148H652V202H660.173C663.905 202 667.171 202.59 669.97 203.77C672.769 204.914 674.933 206.629 676.463 208.916C678.031 211.202 678.814 214.079 678.814 217.546ZM654.575 230.935H660.621C663.718 230.935 666.424 230.585 668.738 229.884C671.089 229.183 672.899 227.874 674.168 225.956C675.474 224.038 676.127 221.235 676.127 217.546C676.127 214.522 675.474 212.032 674.168 210.077C672.899 208.086 671.089 206.629 668.738 205.707C666.424 204.748 663.718 204.268 660.621 204.268H654.575V230.935Z" stroke="#696231"/>
<path d="M692.872 233.701C690.447 233.701 688.431 233.13 686.827 231.986C685.259 230.843 684.084 229.386 683.3 227.615C682.516 225.808 682.143 223.946 682.18 222.028C682.18 220.036 682.591 218.173 683.412 216.44C684.233 214.706 685.427 213.323 686.995 212.29C688.599 211.221 690.54 210.686 692.816 210.686C695.653 210.686 697.985 211.608 699.814 213.452C701.68 215.26 702.725 217.694 702.949 220.755C702.986 220.94 703.005 221.161 703.005 221.419C703.005 221.677 703.005 221.917 703.005 222.138H684.643C684.643 224.978 685.352 227.247 686.771 228.943C688.189 230.64 690.223 231.488 692.872 231.488C694.776 231.488 696.418 230.99 697.799 229.994C699.217 228.999 700.094 227.652 700.43 225.956H702.949C702.501 228.243 701.363 230.105 699.534 231.544C697.743 232.982 695.522 233.701 692.872 233.701ZM684.811 220.479H700.374C700.336 219.52 700.057 218.45 699.534 217.27C699.049 216.089 698.247 215.057 697.127 214.172C696.045 213.286 694.608 212.844 692.816 212.844C690.353 212.844 688.469 213.6 687.162 215.112C685.856 216.624 685.073 218.413 684.811 220.479Z" stroke="#696231"/>
<path d="M716.346 233.701C714.442 233.701 712.893 233.388 711.699 232.761C710.505 232.097 709.591 231.322 708.956 230.437C708.322 229.552 707.874 228.704 707.613 227.892C707.389 227.081 707.277 226.491 707.277 226.122H709.796C709.796 226.159 709.815 226.472 709.852 227.062C709.927 227.615 710.15 228.261 710.524 228.999C710.897 229.736 711.531 230.382 712.427 230.935C713.36 231.451 714.685 231.71 716.402 231.71C717.596 231.71 718.715 231.58 719.76 231.322C720.843 231.027 721.701 230.585 722.335 229.994C723.007 229.367 723.343 228.556 723.343 227.56C723.306 226.38 722.914 225.476 722.167 224.849C721.421 224.185 720.451 223.687 719.257 223.355C718.062 223.024 716.812 222.728 715.506 222.47C714.2 222.212 712.949 221.862 711.755 221.419C710.598 220.976 709.647 220.331 708.9 219.483C708.191 218.634 707.855 217.473 707.893 215.997C707.893 214.264 708.714 212.844 710.356 211.737C711.998 210.631 714.106 210.077 716.681 210.077C717.652 210.077 718.659 210.188 719.704 210.409C720.787 210.631 721.794 211.018 722.727 211.571C723.66 212.124 724.407 212.899 724.966 213.895C725.526 214.854 725.769 216.089 725.694 217.602H723.231C723.306 216.458 723.119 215.536 722.671 214.835C722.223 214.098 721.626 213.544 720.88 213.176C720.171 212.807 719.424 212.567 718.641 212.456C717.857 212.309 717.148 212.235 716.514 212.235C714.759 212.235 713.267 212.567 712.035 213.231C710.841 213.858 710.244 214.799 710.244 216.053C710.244 217.196 710.617 218.063 711.363 218.653C712.11 219.206 713.08 219.649 714.274 219.981C715.469 220.276 716.719 220.571 718.025 220.866C719.331 221.124 720.563 221.493 721.72 221.972C722.914 222.415 723.884 223.079 724.631 223.964C725.414 224.849 725.806 226.085 725.806 227.671C725.806 229.072 725.377 230.234 724.519 231.156C723.66 232.041 722.503 232.687 721.048 233.093C719.63 233.498 718.062 233.701 716.346 233.701Z" stroke="#696231"/>
<path d="M732.271 208.307C731.637 208.344 731.207 208.178 730.983 207.809C730.76 207.44 730.648 206.998 730.648 206.481C730.648 206.002 730.76 205.596 730.983 205.264C731.207 204.932 731.637 204.766 732.271 204.766C732.868 204.766 733.279 204.932 733.503 205.264C733.727 205.596 733.838 206.002 733.838 206.481C733.838 207.035 733.727 207.477 733.503 207.809C733.279 208.141 732.868 208.307 732.271 208.307ZM730.927 233.148V210.686H733.447V233.148H730.927Z" stroke="#696231"/>
<path d="M744.09 242V239.621H756.07V227.671H755.958C755.883 227.929 755.659 228.372 755.286 228.999C754.95 229.626 754.447 230.308 753.775 231.046C753.103 231.783 752.226 232.41 751.144 232.927C750.099 233.443 748.83 233.701 747.337 233.701C745.173 233.701 743.325 233.185 741.795 232.152C740.302 231.119 739.164 229.736 738.38 228.003C737.597 226.269 737.205 224.333 737.205 222.194C737.205 220.018 737.597 218.063 738.38 216.329C739.201 214.596 740.358 213.231 741.851 212.235C743.381 211.202 745.229 210.686 747.393 210.686C748.923 210.686 750.211 210.963 751.256 211.516C752.338 212.032 753.196 212.659 753.831 213.397C754.503 214.098 754.988 214.78 755.286 215.444C755.622 216.071 755.827 216.514 755.902 216.772H756.014L756.07 210.686H758.701V237.961C758.701 239.142 758.477 240.101 758.029 240.838C757.619 241.613 756.742 242 755.398 242H744.09ZM747.673 231.322C749.95 231.322 751.89 230.529 753.495 228.943C755.137 227.357 755.958 225.107 755.958 222.194C755.958 219.354 755.193 217.141 753.663 215.555C752.133 213.932 750.248 213.12 748.009 213.12C746.143 213.12 744.594 213.563 743.363 214.448C742.131 215.296 741.217 216.421 740.619 217.823C740.022 219.188 739.724 220.645 739.724 222.194C739.724 223.743 739.985 225.218 740.508 226.62C741.067 228.021 741.926 229.165 743.083 230.05C744.277 230.898 745.807 231.322 747.673 231.322Z" stroke="#696231"/>
<path d="M763.758 233.148V210.741H765.885L766.333 216.661H766.445C766.52 216.403 766.706 215.96 767.005 215.333C767.303 214.706 767.77 214.042 768.404 213.342C769.039 212.604 769.879 211.977 770.924 211.461C771.968 210.944 773.275 210.686 774.842 210.686C776.783 210.686 778.332 211.036 779.488 211.737C780.645 212.401 781.522 213.286 782.12 214.393C782.717 215.499 783.108 216.716 783.295 218.044C783.482 219.372 783.575 220.7 783.575 222.028V233.148H781.056V221.972C781.056 219.243 780.571 217.067 779.6 215.444C778.667 213.821 776.913 213.01 774.338 213.01C772.51 213.01 770.998 213.452 769.804 214.337C768.647 215.186 767.77 216.348 767.173 217.823C766.613 219.261 766.333 220.829 766.333 222.526V233.148H763.758Z" stroke="#696231"/>
<path d="M798.272 233.701C795.847 233.701 793.831 233.13 792.227 231.986C790.659 230.843 789.484 229.386 788.7 227.615C787.916 225.808 787.543 223.946 787.58 222.028C787.58 220.036 787.991 218.173 788.812 216.44C789.633 214.706 790.827 213.323 792.394 212.29C793.999 211.221 795.94 210.686 798.216 210.686C801.053 210.686 803.385 211.608 805.214 213.452C807.08 215.26 808.125 217.694 808.349 220.755C808.386 220.94 808.405 221.161 808.405 221.419C808.405 221.677 808.405 221.917 808.405 222.138H790.043C790.043 224.978 790.752 227.247 792.171 228.943C793.589 230.64 795.623 231.488 798.272 231.488C800.176 231.488 801.818 230.99 803.199 229.994C804.617 228.999 805.494 227.652 805.83 225.956H808.349C807.901 228.243 806.763 230.105 804.934 231.544C803.143 232.982 800.922 233.701 798.272 233.701ZM790.211 220.479H805.774C805.736 219.52 805.456 218.45 804.934 217.27C804.449 216.089 803.646 215.057 802.527 214.172C801.445 213.286 800.008 212.844 798.216 212.844C795.753 212.844 793.869 213.6 792.562 215.112C791.256 216.624 790.472 218.413 790.211 220.479Z" stroke="#696231"/>
<path d="M813.796 233.148V210.686H815.98L816.315 216.44C816.689 214.854 817.566 213.489 818.947 212.346C820.327 211.202 822.268 210.649 824.768 210.686H826V213.508H824.768C822.231 213.508 820.365 213.913 819.17 214.725C817.976 215.499 817.192 216.55 816.819 217.878C816.483 219.206 816.315 220.681 816.315 222.304V233.148H813.796Z" stroke="#696231"/>
<path d="M40.8522 187.886C49.363 187.886 57.8739 185.771 65.1832 181.338L59.5761 160.583C54.5697 174.89 45.5582 184.259 37.4478 184.259C27.3349 184.259 20.7265 170.658 20.7265 153.732C20.7265 133.784 28.7367 115.347 40.8522 115.347C48.8624 115.347 56.5722 128.646 59.4759 143.557L68.0869 123.709C59.8764 116.657 50.0639 113.433 40.4516 113.433C18.6238 113.433 0 129.351 0 150.811C0 173.278 18.824 187.886 40.8522 187.886Z" fill="#696231"/>
<path d="M110.861 130.661C101.049 130.661 95.3413 141.643 93.0383 151.818V131.568C86.1295 135.396 77.6186 137.21 70.109 137.411C73.4133 142.247 73.0128 146.781 73.0128 148.896V154.337H73.1129V170.759C73.1129 177.811 73.4133 180.229 70.5096 186.476H95.7418C93.1384 180.229 93.1384 177.811 93.1384 170.759V162.901C93.1384 153.027 97.1436 138.62 102.851 138.62C105.154 138.62 106.956 140.937 106.956 143.859C106.956 145.471 106.155 147.486 104.553 149.098C106.455 150.71 108.758 151.214 110.861 151.214C116.268 151.214 121.575 146.68 121.575 140.837C121.575 135.295 117.369 130.661 110.861 130.661Z" fill="#696231"/>
<path d="M135.62 128.545C140.927 128.545 145.332 124.112 145.433 118.773C145.533 113.433 141.327 109 135.92 109C130.614 109 126.008 113.433 125.908 118.773C125.808 124.112 130.213 128.545 135.62 128.545ZM148.837 186.476C146.234 180.229 146.234 177.811 146.234 170.759V159.777H146.133V131.568C139.225 135.396 130.714 137.21 123.204 137.411C126.508 142.247 126.108 146.781 126.108 148.896V154.337H126.208V170.759C126.208 177.811 126.508 180.229 123.605 186.476H148.837Z" fill="#696231"/>
<path d="M172.771 187.886C186.99 187.886 198.604 180.431 198.604 169.953C198.604 162.296 189.793 155.949 182.083 150.508C176.076 146.076 170.769 142.348 170.769 138.519C170.769 134.489 173.773 132.273 177.678 132.273C183.886 132.273 189.693 137.21 192.396 146.982L198.404 131.568C194.099 133.381 183.485 130.963 179.981 130.762C167.164 129.553 153.347 132.273 153.347 144.564C153.347 151.617 162.358 158.367 170.368 164.21C175.575 168.139 180.381 171.666 181.583 175.192C185.187 182.043 179.88 186.677 174.674 186.677C170.669 186.677 166.664 184.159 166.664 178.114C166.664 175.192 168.266 172.169 170.969 171.061C169.267 167.938 165.562 166.427 161.857 166.427C156.951 166.427 152.245 169.147 152.245 174.688C152.245 184.058 163.459 187.886 172.771 187.886Z" fill="#696231"/>
<path d="M230.604 187.987V187.886C226.999 185.368 224.396 183.151 224.396 173.278V133.28H231.004V131.568H224.396V113.534H223.395C221.492 123.911 214.683 130.661 199.865 131.568C202.568 132.877 204.27 134.892 204.27 137.915V173.076C204.27 186.174 217.787 188.188 230.604 187.987Z" fill="#696231"/>
<path d="M245.819 128.545C251.126 128.545 255.532 124.112 255.632 118.773C255.732 113.433 251.527 109 246.12 109C240.813 109 236.207 113.433 236.107 118.773C236.007 124.112 240.412 128.545 245.819 128.545ZM259.036 186.476C256.433 180.229 256.433 177.811 256.433 170.759V159.777H256.333V131.568C249.424 135.396 240.913 137.21 233.403 137.411C236.708 142.247 236.307 146.781 236.307 148.896V154.337H236.407V170.759C236.407 177.811 236.708 180.229 233.804 186.476H259.036Z" fill="#696231"/>
<path d="M325.411 186.274C322.807 180.028 322.807 177.61 322.807 170.557V159.576H322.707V142.549C322.707 135.094 317.901 130.661 311.793 130.661C303.283 130.661 292.068 139.325 285.86 157.561V131.568C278.951 135.396 270.441 137.21 262.931 137.411C266.235 142.247 265.835 146.781 265.835 148.896V154.337H265.935V170.557C265.935 177.61 266.235 180.028 263.332 186.274H288.564C285.96 180.028 285.96 177.61 285.96 170.557V162.095C288.764 150.811 296.374 139.93 300.179 139.93C301.681 139.93 302.682 141.643 302.682 145.874V153.531H302.782V170.557C302.782 177.61 303.082 180.028 300.179 186.274H325.411Z" fill="#696231"/>
<path d="M345.878 187.785C355.591 187.785 367.506 180.028 385.529 186.274C384.227 184.058 382.826 178.92 382.826 173.58V149.098C382.826 136.706 369.809 130.56 357.293 130.56C346.479 130.56 336.466 135.195 336.466 144.161C336.466 149.602 341.172 152.02 346.079 152.02C349.583 152.02 353.088 150.609 354.89 147.788C351.986 146.176 350.584 143.255 350.584 140.434C350.584 134.892 354.89 132.071 359.195 132.071C363.1 132.071 366.905 134.59 366.905 139.829C367.005 150.105 357.493 153.43 347.681 156.453C337.468 159.677 328.056 162.901 328.056 173.58C328.056 182.647 336.667 187.785 345.878 187.785ZM362.8 182.647C355.991 183.554 347.681 181.136 347.38 171.464C347.08 161.389 356.592 156.453 362.8 151.113V182.647Z" fill="#696231"/>
<path d="M454.215 116.959H457.519C461.524 116.959 471.838 127.739 475.442 131.165L473.239 115.549H413.763L411.561 131.165C415.165 127.739 426.38 116.959 430.385 116.959H434.089V170.557C434.089 177.61 434.39 180.028 431.486 186.274H456.718C454.115 180.028 454.115 177.61 454.115 170.557V159.576L454.215 116.959Z" fill="#696231"/>
<path d="M494.528 187.886C504.441 187.886 518.459 181.136 520.962 165.923L520.161 165.319C516.957 172.472 511.15 176.905 505.142 176.905C497.132 176.905 490.924 170.457 488.521 161.792C490.723 162.598 493.327 163.001 496.23 163.001C510.148 163.001 519.36 154.438 518.959 145.068C518.559 137.512 511.75 130.56 497.532 130.762C477.907 131.064 467.394 145.572 467.394 160.08C467.394 173.882 476.405 187.886 494.528 187.886ZM492.225 161.289C491.024 161.289 489.522 161.087 488.12 160.483C485.717 150.71 489.021 132.374 497.632 132.374C501.237 132.374 503.94 138.217 503.84 145.37C503.74 153.732 499.935 161.289 492.225 161.289Z" fill="#696231"/>
<path d="M551.505 187.886C571.13 187.886 580.943 173.781 580.943 159.677C580.943 145.471 571.13 130.661 551.505 130.661C531.68 130.661 521.467 145.673 521.467 159.878C521.467 173.882 531.379 187.886 551.505 187.886ZM551.405 186.98C544.496 186.98 541.092 173.278 541.092 159.576C541.092 145.975 544.496 131.568 551.405 131.568C558.314 131.568 561.718 145.975 561.718 159.576C561.718 173.278 558.314 186.98 551.405 186.98Z" fill="#696231"/>
<path d="M614.395 187.987V187.886C610.79 185.368 608.187 183.151 608.187 173.278V133.28H614.795V131.568H608.187V113.534H607.185C605.283 123.911 598.474 130.661 583.655 131.568C586.359 132.877 588.061 134.892 588.061 137.915V173.076C588.061 186.174 601.578 188.188 614.395 187.987Z" fill="#696231"/>
<path d="M645.766 187.886C665.391 187.886 675.203 173.781 675.203 159.677C675.203 145.471 665.391 130.661 645.766 130.661C625.941 130.661 615.728 145.673 615.728 159.878C615.728 173.882 625.64 187.886 645.766 187.886ZM645.666 186.98C638.757 186.98 635.353 173.278 635.353 159.576C635.353 145.975 638.757 131.568 645.666 131.568C652.575 131.568 655.979 145.975 655.979 159.576C655.979 173.278 652.575 186.98 645.666 186.98Z" fill="#696231"/>
<path d="M741.567 186.274C738.964 180.028 738.964 177.61 738.964 170.557V159.576H738.864V142.549C738.864 135.094 734.058 130.661 727.95 130.661C719.439 130.661 708.225 139.325 702.017 157.561V131.568C695.108 135.396 686.597 137.21 679.087 137.411C682.392 142.247 681.991 146.781 681.991 148.896V154.337H682.091V170.557C682.091 177.61 682.392 180.028 679.488 186.274H704.72C702.117 180.028 702.117 177.61 702.117 170.557V162.095C704.92 150.811 712.53 139.93 716.335 139.93C717.837 139.93 718.838 141.643 718.838 145.874V153.531H718.938V170.557C718.938 177.61 719.239 180.028 716.335 186.274H741.567Z" fill="#696231"/>
<path d="M758.094 128.545C763.401 128.545 767.807 124.112 767.907 118.773C768.007 113.433 763.802 109 758.395 109C753.088 109 748.482 113.433 748.382 118.773C748.282 124.112 752.688 128.545 758.094 128.545ZM771.311 186.476C768.708 180.229 768.708 177.811 768.708 170.759V159.777H768.608V131.568C761.699 135.396 753.188 137.21 745.679 137.411C748.983 142.247 748.582 146.781 748.582 148.896V154.337H748.682V170.759C748.682 177.811 748.983 180.229 746.079 186.476H771.311Z" fill="#696231"/>
<path d="M804.562 187.886C824.187 187.886 834 173.781 834 159.677C834 145.471 824.187 130.661 804.562 130.661C784.737 130.661 774.524 145.673 774.524 159.878C774.524 173.882 784.437 187.886 804.562 187.886ZM804.462 186.98C797.553 186.98 794.149 173.278 794.149 159.576C794.149 145.975 797.553 131.568 804.462 131.568C811.371 131.568 814.775 145.975 814.775 159.576C814.775 173.278 811.371 186.98 804.462 186.98Z" fill="#696231"/>
<path d="M5 77.4847H30.2693C27.6622 71.2212 27.6622 68.7967 27.6622 61.7251V46.7737L31.5729 41.7225L40.8985 61.7251C44.2076 68.7967 45.7117 71.2212 45.7117 77.4847H70.981C65.4659 71.2212 64.2626 68.7967 60.9535 61.7251L44.2076 26.165C50.4246 19.5985 59.0483 12.1228 67.3711 6.5665H47.8175C47.9178 13.9412 42.904 24.8517 37.088 32.4284L27.6622 44.7532V22.3261C27.6622 15.2545 27.6622 12.8299 30.2693 6.5665H5C7.90798 12.8299 7.60715 15.2545 7.60715 22.3261V61.7251C7.60715 68.2916 7.60715 72.7366 5 77.4847Z" fill="#696231"/>
<path d="M90.0255 79C99.7522 79 111.685 71.2212 129.734 77.4847C128.431 75.2621 127.027 70.11 127.027 64.7558V40.2072C127.027 27.7813 113.991 21.6189 101.457 21.6189C90.6271 21.6189 80.5996 26.266 80.5996 35.257C80.5996 40.7123 85.3125 43.1368 90.226 43.1368C93.7357 43.1368 97.2453 41.7225 99.0502 38.8939C96.1423 37.2775 94.7384 34.3478 94.7384 31.5192C94.7384 25.9629 99.0502 23.1343 103.362 23.1343C107.273 23.1343 111.083 25.6598 111.083 30.913C111.184 41.2174 101.657 44.5512 91.8304 47.5818C81.6024 50.8146 72.1765 54.0473 72.1765 64.7558C72.1765 73.8478 80.8002 79 90.0255 79ZM106.972 73.8478C100.153 74.757 91.8304 72.3325 91.5296 62.6343C91.2288 52.532 100.755 47.5818 106.972 42.2276V73.8478Z" fill="#696231"/>
<path d="M174.289 21.7199C164.463 21.7199 158.747 32.7315 156.441 42.9348V22.6292C149.522 26.468 140.998 28.2864 133.478 28.4885C136.787 33.3376 136.385 37.8836 136.385 40.0051V45.4604H136.486V61.9271C136.486 68.9987 136.787 71.4233 133.879 77.6867H159.148C156.541 71.4233 156.541 68.9987 156.541 61.9271V54.0473C156.541 44.1471 160.552 29.7008 166.267 29.7008C168.574 29.7008 170.379 32.0243 170.379 34.954C170.379 36.5703 169.577 38.5908 167.972 40.2072C169.877 41.8235 172.184 42.3286 174.289 42.3286C179.704 42.3286 185.019 37.7826 185.019 31.9233C185.019 26.367 180.807 21.7199 174.289 21.7199Z" fill="#696231"/>
<path d="M199.085 19.5985C204.399 19.5985 208.812 15.1535 208.912 9.79923C209.012 4.44501 204.801 0 199.386 0C194.071 0 189.458 4.44501 189.358 9.79923C189.258 15.1535 193.67 19.5985 199.085 19.5985ZM212.321 77.6867C209.714 71.4233 209.714 68.9987 209.714 61.9271V50.9156H209.614V22.6292C202.695 26.468 194.171 28.2864 186.651 28.4885C189.96 33.3376 189.559 37.8836 189.559 40.0051V45.4604H189.659V61.9271C189.659 68.9987 189.96 71.4233 187.052 77.6867H212.321Z" fill="#696231"/>
<path d="M278.793 77.4847C276.186 71.2212 276.186 68.7967 276.186 61.7251V50.7136H276.086V33.6407C276.086 26.165 271.273 21.7199 265.156 21.7199C256.633 21.7199 245.402 30.4079 239.185 48.6931V22.6292C232.266 26.468 223.742 28.2864 216.222 28.4885C219.531 33.3376 219.13 37.8836 219.13 40.0051V45.4604H219.23V61.7251C219.23 68.7967 219.531 71.2212 216.623 77.4847H241.892C239.285 71.2212 239.285 68.7967 239.285 61.7251V53.2391C242.093 41.9245 249.714 31.0141 253.524 31.0141C255.028 31.0141 256.031 32.7315 256.031 36.9744V44.6522H256.131V61.7251C256.131 68.7967 256.432 71.2212 253.524 77.4847H278.793Z" fill="#696231"/>
<path d="M299.291 79C309.018 79 320.95 71.2212 339 77.4847C337.696 75.2621 336.293 70.11 336.293 64.7558V40.2072C336.293 27.7813 323.257 21.6189 310.722 21.6189C299.893 21.6189 289.865 26.266 289.865 35.257C289.865 40.7123 294.578 43.1368 299.492 43.1368C303.001 43.1368 306.511 41.7225 308.316 38.8939C305.408 37.2775 304.004 34.3478 304.004 31.5192C304.004 25.9629 308.316 23.1343 312.628 23.1343C316.538 23.1343 320.349 25.6598 320.349 30.913C320.449 41.2174 310.923 44.5512 301.096 47.5818C290.868 50.8146 281.442 54.0473 281.442 64.7558C281.442 73.8478 290.066 79 299.291 79ZM316.238 73.8478C309.419 74.757 301.096 72.3325 300.795 62.6343C300.494 52.532 310.02 47.5818 316.238 42.2276V73.8478Z" fill="#696231"/>
<path fill-rule="evenodd" clip-rule="evenodd" d="M631.154 65.1396C663.157 73.3863 692.559 80.9625 715.962 86.2527C762.566 96.7869 790.957 94.4571 807.481 87.7164C823.856 81.0364 828.563 70.0794 828.384 62.5423L833.993 62.4125C834.234 72.5234 827.86 85.3912 809.626 92.8296C791.54 100.207 761.795 102.29 714.709 91.6461C691.214 86.3354 661.702 78.7304 629.689 70.4814C621.738 68.4325 613.633 66.3438 605.427 64.2408C564.148 53.6611 520.29 42.7044 480.538 34.534C440.725 26.3508 405.269 21.0151 380.709 21.5732C368.36 21.8538 359.229 23.6234 353.678 26.9009C350.968 28.5011 349.22 30.3963 348.278 32.5737C347.334 34.7547 347.078 37.4951 347.85 40.9894C350.635 53.5944 351.595 62.3573 351.166 68.1644C350.952 71.0601 350.378 73.472 349.308 75.2935C348.172 77.227 346.468 78.4837 344.326 78.7982C342.35 79.0884 340.392 78.5166 338.689 77.7015C336.952 76.8697 335.203 75.6502 333.528 74.2601C330.173 71.4763 326.799 67.7416 324 64.1687L328.44 60.786C331.098 64.1795 334.199 67.5852 337.14 70.0262C338.613 71.2485 339.968 72.1624 341.14 72.7239C342.347 73.302 343.104 73.3834 343.5 73.3252C343.73 73.2914 344.054 73.1983 344.453 72.5195C344.917 71.7287 345.385 70.2655 345.57 67.7624C345.938 62.7717 345.124 54.6412 342.368 42.1674C341.409 37.8246 341.616 33.8708 343.118 30.4012C344.621 26.9279 347.303 24.2162 350.796 22.1535C357.651 18.1055 368.019 16.3267 380.58 16.0413C405.84 15.4673 441.848 20.9294 481.683 29.1171C521.581 37.3176 565.556 48.3048 606.839 58.8853C615.07 60.995 623.193 63.088 631.154 65.1396Z" fill="#696231"/>
<path fill-rule="evenodd" clip-rule="evenodd" d="M688.908 130.356L682.084 122.702C678.893 119.124 677.043 115.062 675.653 110.757C674.954 108.594 674.383 106.41 673.802 104.184L673.786 104.122C673.218 101.944 672.636 99.713 671.934 97.5723C670.513 93.2394 668.513 88.9758 664.731 85.6397C661.079 82.4187 656.048 80.3055 648.994 79.4927L634.267 66.7859L630.63 71.0002L643.908 82.4562C639.879 87.4615 636.377 94.4121 639.661 102.248C641.499 106.632 645.335 110.895 651.622 115.012C657.917 119.135 666.84 123.224 679.15 127.203L688.908 130.356ZM648.952 85.0949C654.859 85.8585 658.554 87.6134 661.049 89.814C663.755 92.2008 665.357 95.378 666.645 99.3063C667.29 101.276 667.834 103.358 668.416 105.589L668.42 105.604C668.994 107.803 669.602 110.134 670.356 112.468C671.077 114.699 671.941 116.967 673.067 119.202C665.066 116.214 659.076 113.24 654.672 110.356C648.933 106.597 646.055 103.104 644.795 100.096C642.561 94.766 645.005 89.6769 648.952 85.0949Z" fill="#696231"/>
<path fill-rule="evenodd" clip-rule="evenodd" d="M609.448 120.648L616.272 112.994C617.929 111.136 618.913 109.003 619.675 106.646C620.059 105.456 620.375 104.249 620.706 102.981L620.719 102.929C621.039 101.705 621.377 100.408 621.787 99.1576C622.622 96.6109 623.844 93.9561 626.223 91.8574C628.459 89.8851 631.452 88.6332 635.441 88.1208L643.523 81.148L647.159 85.3623L640.479 91.1256C642.587 94.0631 644.267 98.095 642.357 102.651C641.19 105.437 638.805 108.023 635.118 110.438C631.424 112.857 626.25 115.218 619.205 117.495L609.448 120.648ZM635.481 93.738C632.692 94.1854 631.013 95.0545 629.905 96.0317C628.602 97.1811 627.779 98.7495 627.076 100.891C626.724 101.968 626.424 103.113 626.092 104.386L626.086 104.409C625.763 105.648 625.41 106.999 624.971 108.357C624.835 108.778 624.69 109.204 624.532 109.633C627.697 108.319 630.166 107.027 632.069 105.781C635.208 103.726 636.633 101.909 637.224 100.5C638.149 98.2934 637.345 96.0597 635.481 93.738Z" fill="#696231"/>
</svg>
