<svg width="92" height="92" viewBox="0 0 92 92" fill="none" xmlns="http://www.w3.org/2000/svg">
<path d="M73.1667 19.1552C69.6523 15.6053 65.4662 12.7906 60.8526 10.8754C56.239 8.96023 51.2903 7.98283 46.295 8.00023C25.365 8.00023 8.30667 25.0586 8.30667 45.9886C8.30667 52.6969 10.07 59.2136 13.3667 64.9636L8 84.6669L28.125 79.3769C33.6833 82.4052 39.9317 84.0152 46.295 84.0152C67.225 84.0152 84.2833 66.9569 84.2833 46.0269C84.2833 35.8686 80.335 26.3236 73.1667 19.1552ZM46.295 77.5752C40.6217 77.5752 35.0633 76.0419 30.195 73.1669L29.045 72.4769L17.085 75.6202L20.2667 63.9669L19.5 62.7786C16.348 57.7453 14.6744 51.9273 14.67 45.9886C14.67 28.5852 28.8533 14.4019 46.2567 14.4019C54.69 14.4019 62.625 17.6986 68.5667 23.6786C71.5087 26.6071 73.8402 30.0904 75.426 33.9267C77.0118 37.7629 77.8205 41.8758 77.805 46.0269C77.8817 63.4302 63.6983 77.5752 46.295 77.5752ZM63.6217 53.9619C62.6633 53.5019 57.9867 51.2019 57.1433 50.8569C56.2617 50.5502 55.6483 50.3969 54.9967 51.3169C54.345 52.2752 52.5433 54.4219 52.0067 55.0352C51.47 55.6869 50.895 55.7636 49.9367 55.2652C48.9783 54.8052 45.9117 53.7702 42.3083 50.5502C39.4717 48.0202 37.5933 44.9152 37.0183 43.9569C36.4817 42.9986 36.9417 42.5002 37.44 42.0019C37.8617 41.5802 38.3983 40.8902 38.8583 40.3536C39.3183 39.8169 39.51 39.3952 39.8167 38.7819C40.1233 38.1302 39.97 37.5936 39.74 37.1336C39.51 36.6736 37.5933 31.9969 36.8267 30.0802C36.06 28.2402 35.255 28.4702 34.68 28.4319H32.84C32.1883 28.4319 31.1917 28.6619 30.31 29.6202C29.4667 30.5786 27.0133 32.8786 27.0133 37.5552C27.0133 42.2319 30.425 46.7552 30.885 47.3686C31.345 48.0202 37.5933 57.6036 47.1 61.7052C49.3617 62.7019 51.125 63.2769 52.505 63.6986C54.7667 64.4269 56.8367 64.3119 58.485 64.0819C60.325 63.8136 64.12 61.7819 64.8867 59.5586C65.6917 57.3352 65.6917 55.4569 65.4233 55.0352C65.155 54.6136 64.58 54.4219 63.6217 53.9619Z" fill="#EAEDE8"/>
</svg>
